<svg width="18" height="16" viewBox="0 0 18 16" fill="none" xmlns="http://www.w3.org/2000/svg">
<path fill-rule="evenodd" clip-rule="evenodd" d="M8.17491 0.584964C8.37945 0.512236 8.60212 0.508047 8.80926 0.573032L16.7993 3.07973C17.2163 3.21053 17.5 3.5969 17.5 4.03387V4.50004C17.5 5.05232 17.0523 5.50004 16.5 5.50004H1.5C0.947715 5.50004 0.5 5.05232 0.5 4.50004V4.01959C0.5 3.59646 0.766311 3.21913 1.16499 3.07738L8.17491 0.584964ZM8.50992 1.52718L1.5 4.01959V4.50004H16.5V4.03387L8.50992 1.52718Z" fill="white"/>
<path fill-rule="evenodd" clip-rule="evenodd" d="M0.5 12.5C0.5 11.9477 0.947715 11.5 1.5 11.5H16.5C17.0523 11.5 17.5 11.9477 17.5 12.5V14.5C17.5 15.0523 17.0523 15.5 16.5 15.5H1.5C0.947715 15.5 0.5 15.0523 0.5 14.5V12.5ZM1.5 12.5V14.5H16.5V12.5H1.5Z" fill="white"/>
<path fill-rule="evenodd" clip-rule="evenodd" d="M4 7H3V10H4V7ZM2 6V11H5V6H2Z" fill="white"/>
<path fill-rule="evenodd" clip-rule="evenodd" d="M10 7H8V10H10V7ZM7 6V11H11V6H7Z" fill="white"/>
<path fill-rule="evenodd" clip-rule="evenodd" d="M15 7H14V10H15V7ZM13 6V11H16V6H13Z" fill="white"/>
</svg>
